# xmcd CD database file
#
# Track frame offsets:
#	182
#	16885
#	26762
#	37212
#	49830
#	63165
#	73392
#	82440
#	91982
#	100315
#	108730
#	118892
#	127670
#	137695
#
# Disc length: 1979 seconds
#
# Revision: 0
# Processed by: cddbd v1.4PL0 Copyright (c) Steve Scherf et al.
# Submitted via: CDex 1.40Beta9
#
DISCID=ce07b90e
DTITLE=the nashville sound orchestra - western movie themes
DYEAR=1900
DGENRE=Country
TTITLE0=once upon a time in the west
TTITLE1=streets of laredo
TTITLE2=high chapparal
TTITLE3=for a few dollars more
TTITLE4=the good, the bad and th ugly
TTITLE5=the man who shot liberty valance
TTITLE6=shenandoa
TTITLE7=the magnificent seven
TTITLE8=bonanza
TTITLE9=a fistful of dollars
TTITLE10=hang 'em high
TTITLE11=rawhide
TTITLE12=ghost riders in the sky
TTITLE13=the big country
EXTD=ID3G: 2
EXTT0=
EXTT1=
EXTT2=
EXTT3=
EXTT4=
EXTT5=
EXTT6=
EXTT7=
EXTT8=
EXTT9=
EXTT10=
EXTT11=
EXTT12=
EXTT13=
PLAYORDER=
